# xmcd CD database file
#
# Track frame offsets:
#	150
#	17515
#	30631
#	44113
#	59005
#	75395
#	91608
#	109914
#	122198
#	139361
#	150924
#	165816
#	183272
#	201693
#	220706
#	238350
#	252859
#	269883
#
# Disc length: 3878 seconds
#
# Revision: 0
# Processed by: cddbd v1.5.2PL0 Copyright (c) Steve Scherf et al.
# Submitted via: CDex 1.51
#
DISCID=000f2412
DTITLE=Chely Wright - The defenetive collection
DYEAR=2007
DGENRE=Country
TTITLE0=Shut up and drive - Chely Wright
TTITLE1=He's a good ole boy - Chely Wright
TTITLE2=Till I was love by you - Chely Wright
TTITLE3=I love you enough to ler you go - Chely Wright
TTITLE4=Sea och cowboy hats - Chely Wright
TTITLE5=listenin' to the radio - Chely Wright
TTITLE6=The love that we lost - Chely Wright
TTITLE7=Just another heartache - Chely Wright
TTITLE8=I already do - Chely Wright
TTITLE9=Feelin' single and seein double - Chely Wright
TTITLE10=Single white female - Chely Wright
TTITLE11=It was - Chely Wright
TTITLE12=Picket fences - Chely Wright
TTITLE13=She went out for cigarettes - Chely Wright
TTITLE14=Never love you enough - Chely Wright
TTITLE15=Jezebel - Chely Wright
TTITLE16=Back of the bottom drawer - Chely Wright
TTITLE17=The bumper of my S.U.V - Chely Wright
EXTD=YEAR: 2007
EXTT0=
EXTT1=
EXTT2=
EXTT3=
EXTT4=
EXTT5=
EXTT6=
EXTT7=
EXTT8=
EXTT9=
EXTT10=
EXTT11=
EXTT12=
EXTT13=
EXTT14=
EXTT15=
EXTT16=
EXTT17=
PLAYORDER=
